<svg xmlns="http://www.w3.org/2000/svg" width="1200" height="850" viewBox="0 0 1200 850"><g font-family="DejaVu Sans, sans-serif"><rect x="0" y="0" width="1200" height="850" rx="0" fill="#090f16"/><g transform="translate(40,30)"><rect x="0" y="0" width="1120" height="760" rx="16" fill="#111923"/><text x="30" y="58" font-size="34" fill="#f1f4f1" font-weight="700">DOFFY</text><text x="250" y="50" font-size="20" fill="#adbac7" font-weight="400">TELEOPERATION / WORKSPACE</text><text x="250" y="85" font-size="22" fill="#9ae3c6" font-weight="400">Ready to connect</text><text x="810" y="55" font-size="20" fill="#adbac7" font-weight="400">CONTROLLERS</text><text x="810" y="88" font-size="18" fill="#adbac7" font-weight="400">FEEDBACK · WAITING</text><text x="252" y="146" font-size="33" fill="#f1f4f1" font-weight="700">Session</text><rect x="24" y="123" width="194" height="58" rx="16" fill="#263546"/><text x="121.0" y="160.0" text-anchor="middle" font-size="23" font-weight="700" fill="#f1f4f1">Session</text><rect x="25" y="136" width="3" height="32" rx="1" fill="#9ae3c6"/><rect x="24" y="195" width="194" height="58" rx="16" fill="#263546"/><text x="121.0" y="232.0" text-anchor="middle" font-size="23" font-weight="700" fill="#f1f4f1">Cameras</text><rect x="24" y="267" width="194" height="58" rx="16" fill="#263546"/><text x="121.0" y="304.0" text-anchor="middle" font-size="23" font-weight="700" fill="#f1f4f1">Alignment</text><rect x="24" y="339" width="194" height="58" rx="16" fill="#263546"/><text x="121.0" y="376.0" text-anchor="middle" font-size="23" font-weight="700" fill="#f1f4f1">Upper limb</text><rect x="24" y="411" width="194" height="58" rx="16" fill="#263546"/><text x="121.0" y="448.0" text-anchor="middle" font-size="23" font-weight="700" fill="#f1f4f1">Display</text><rect x="24" y="483" width="194" height="58" rx="16" fill="#263546"/><text x="121.0" y="520.0" text-anchor="middle" font-size="23" font-weight="700" fill="#f1f4f1">Help</text><rect x="24" y="602" width="194" height="58" rx="16" fill="#263546"/><text x="121.0" y="639.0" text-anchor="middle" font-size="23" font-weight="700" fill="#f1f4f1">Compact view</text><rect x="24" y="674" width="194" height="54" rx="16" fill="#263546"/><text x="121.0" y="709.0" text-anchor="middle" font-size="23" font-weight="700" fill="#f1f4f1">Bring closer</text><rect x="248" y="647" width="844" height="89" rx="16" fill="#1b2633"/><rect x="264" y="663" width="256" height="58" rx="16" fill="#9ae3c6"/><text x="392.0" y="700.0" text-anchor="middle" font-size="23" font-weight="700" fill="#111923">Start session</text><rect x="538" y="663" width="256" height="58" rx="16" fill="#263546"/><text x="666.0" y="700.0" text-anchor="middle" font-size="23" font-weight="700" fill="#f1f4f1">Start recording</text><rect x="812" y="663" width="264" height="58" rx="16" fill="#263546"/><text x="944.0" y="700.0" text-anchor="middle" font-size="23" font-weight="700" fill="#f1f4f1">Recalibrate</text><rect x="250" y="174" width="842" height="176" rx="16" fill="#1b2633"/><text x="272" y="214" font-size="24" fill="#f1f4f1" font-weight="700">Connect to your workstation</text><text x="272" y="250" font-size="22" fill="#adbac7" font-weight="400">Keep Quest and PC on the same network.</text><rect x="272" y="271" width="588" height="64" rx="16" fill="#111923"/><text x="290" y="312" font-size="25" fill="#f1f4f1" font-weight="400">192.0.2.11</text><rect x="878" y="274" width="190" height="58" rx="16" fill="#263546"/><text x="973.0" y="311.0" text-anchor="middle" font-size="23" font-weight="700" fill="#f1f4f1">Apply</text><rect x="250" y="370" width="842" height="142" rx="16" fill="#1b2633"/><text x="272" y="410" font-size="24" fill="#f1f4f1" font-weight="700">Input &amp; reference</text><rect x="272" y="435" width="247" height="58" rx="16" fill="#9ae3c6"/><text x="395.5" y="472.0" text-anchor="middle" font-size="23" font-weight="700" fill="#111923">Controllers</text><rect x="537" y="435" width="247" height="58" rx="16" fill="#263546"/><text x="660.5" y="472.0" text-anchor="middle" font-size="23" font-weight="700" fill="#f1f4f1">Hand tracking</text><rect x="802" y="435" width="266" height="58" rx="16" fill="#263546"/><text x="935.0" y="472.0" text-anchor="middle" font-size="23" font-weight="700" fill="#f1f4f1">Mirror mode</text><text x="256" y="556" font-size="23" fill="#adbac7" font-weight="400">Hold the grip to control the robot.</text><text x="256" y="587" font-size="23" fill="#adbac7" font-weight="400">Release the grip to pause.</text></g><text x="40" y="826" font-size="16" fill="#adbac7" font-weight="400">Design layout preview · Runtime appearance and XR interaction require Unity / Quest validation.</text></g></svg>